<svg version="1.2" xmlns="http://www.w3.org/2000/svg" viewBox="0 0 300 300" width="300" height="300"><style>.a{fill:#fff}.b{fill:#3e4357}.c{fill:#f97522}.d{fill:#009de7}.e{fill:#2fec78}.f{opacity:.2}.g{fill:#3c4155}</style><path fill-rule="evenodd" class="a" d="m21 210h236c8.3 0 15 6.7 15 15v48c0 8.3-6.7 15-15 15h-236c-8.3 0-15-6.7-15-15v-48c0-8.3 6.7-15 15-15z"/><path fill-rule="evenodd" class="b" d="m24 221v56c-4.4 0-8-3.6-8-8v-40c0-4.4 3.6-8 8-8z"/><path fill-rule="evenodd" class="b" d="m168.1 221h86.3c4.2 0 7.6 3.6 7.6 8v40c0 4.4-3.4 8-7.6 8h-110.5z"/><path fill-rule="evenodd" class="c" d="m228 240.3c4.8 0 8.7 3.9 8.7 8.7 0 4.8-3.9 8.7-8.7 8.7-4.8 0-8.7-3.9-8.7-8.7 0-4.8 3.9-8.7 8.7-8.7z"/><path fill-rule="evenodd" class="c" d="m196 240.3c4.8 0 8.7 3.9 8.7 8.7 0 4.8-3.9 8.7-8.7 8.7-4.8 0-8.7-3.9-8.7-8.7 0-4.8 3.9-8.7 8.7-8.7z"/><path fill-rule="evenodd" class="c" d="m55 230.9c10 0 18.1 8.1 18.1 18.1 0 10-8.1 18.1-18.1 18.1-10 0-18.1-8.1-18.1-18.1 0-10 8.1-18.1 18.1-18.1z"/><path fill-rule="evenodd" class="a" d="m21 125h236c8.3 0 15 6.7 15 15v48c0 8.3-6.7 15-15 15h-236c-8.3 0-15-6.7-15-15v-48c0-8.3 6.7-15 15-15z"/><path fill-rule="evenodd" class="b" d="m24 136v56c-4.4 0-8-3.6-8-8v-40c0-4.4 3.6-8 8-8z"/><path fill-rule="evenodd" class="b" d="m168.1 136h86.3c4.2 0 7.6 3.6 7.6 8v40c0 4.4-3.4 8-7.6 8h-110.5z"/><path fill-rule="evenodd" class="d" d="m228 155.3c4.8 0 8.7 3.9 8.7 8.7 0 4.8-3.9 8.7-8.7 8.7-4.8 0-8.7-3.9-8.7-8.7 0-4.8 3.9-8.7 8.7-8.7z"/><path fill-rule="evenodd" class="d" d="m196 155.3c4.8 0 8.7 3.9 8.7 8.7 0 4.8-3.9 8.7-8.7 8.7-4.8 0-8.7-3.9-8.7-8.7 0-4.8 3.9-8.7 8.7-8.7z"/><path fill-rule="evenodd" class="d" d="m55 145.9c10 0 18.1 8.1 18.1 18.1 0 10-8.1 18.1-18.1 18.1-10 0-18.1-8.1-18.1-18.1 0-10 8.1-18.1 18.1-18.1z"/><path fill-rule="evenodd" class="a" d="m21 39h236c8.3 0 15 6.7 15 15v48c0 8.3-6.7 15-15 15h-236c-8.3 0-15-6.7-15-15v-48c0-8.3 6.7-15 15-15z"/><path fill-rule="evenodd" class="b" d="m24 50v56c-4.4 0-8-3.6-8-8v-40c0-4.4 3.6-8 8-8z"/><path fill-rule="evenodd" class="b" d="m168.1 50h86.3c4.2 0 7.6 3.6 7.6 8v40c0 4.4-3.4 8-7.6 8h-110.5z"/><path fill-rule="evenodd" class="e" d="m228 69.3c4.8 0 8.7 3.9 8.7 8.7 0 4.8-3.9 8.7-8.7 8.7-4.8 0-8.7-3.9-8.7-8.7 0-4.8 3.9-8.7 8.7-8.7z"/><path fill-rule="evenodd" class="e" d="m196 69.3c4.8 0 8.7 3.9 8.7 8.7 0 4.8-3.9 8.7-8.7 8.7-4.8 0-8.7-3.9-8.7-8.7 0-4.8 3.9-8.7 8.7-8.7z"/><path fill-rule="evenodd" class="e" d="m55 59.9c10 0 18.1 8.1 18.1 18.1 0 10-8.1 18.1-18.1 18.1-10 0-18.1-8.1-18.1-18.1 0-10 8.1-18.1 18.1-18.1z"/><path fill-rule="evenodd" class="f" d="m271.9 85.1c-3.3 0.8-6.7 1.2-10.3 1.2-23.2 0-41.9-18.7-41.9-41.9 0-1.7 0.1-3.7 0.3-5.4 3.6 0 15 0 15 0l37 31c0 0-0.1 10.1-0.1 15.1z"/><path fill-rule="evenodd" class="g" d="m261.6 11.5c18.2 0 32.9 14.7 32.9 32.9 0 18.1-14.7 32.8-32.9 32.8-18.1 0-32.8-14.7-32.8-32.8 0-18.2 14.7-32.9 32.8-32.9z"/><path class="a" d="m263.6 60.1v-29.6h-5.2v29.6zm11.1-12.1v-5.3h-27.2v5.3z"/></svg>