<svg version="1.2" xmlns="http://www.w3.org/2000/svg" viewBox="0 0 1485 291" width="1485" height="291"><style>tspan{white-space:pre}.a{fill:#121212}.b{fill:#3e4357}.c{opacity:.5;fill:#121212}.d{fill:#f97522}.e{fill:#009de7}.f{fill:#2fec78}.g{opacity:.4}.h{fill:#3c4155}.i{fill:#fff}</style><path fill-rule="evenodd" class="a" d="m29 206h236c8.3 0 15 6.7 15 15v48c0 8.3-6.7 15-15 15h-236c-8.3 0-15-6.7-15-15v-48c0-8.3 6.7-15 15-15z"/><path fill-rule="evenodd" class="b" d="m32 217v56c-4.4 0-8-3.6-8-8v-40c0-4.4 3.6-8 8-8z"/><path fill-rule="evenodd" class="c" d="m32 217h144.1l-24.2 56h-119.9z"/><path fill-rule="evenodd" class="b" d="m176.1 217h86.3c4.2 0 7.6 3.6 7.6 8v40c0 4.4-3.4 8-7.6 8h-110.5z"/><path fill-rule="evenodd" class="d" d="m236 236.3c4.8 0 8.7 3.9 8.7 8.7 0 4.8-3.9 8.7-8.7 8.7-4.8 0-8.7-3.9-8.7-8.7 0-4.8 3.9-8.7 8.7-8.7z"/><path fill-rule="evenodd" class="d" d="m204 236.3c4.8 0 8.7 3.9 8.7 8.7 0 4.8-3.9 8.7-8.7 8.7-4.8 0-8.7-3.9-8.7-8.7 0-4.8 3.9-8.7 8.7-8.7z"/><path fill-rule="evenodd" class="d" d="m63 226.9c10 0 18.1 8.1 18.1 18.1 0 10-8.1 18.1-18.1 18.1-10 0-18.1-8.1-18.1-18.1 0-10 8.1-18.1 18.1-18.1z"/><path fill-rule="evenodd" class="a" d="m29 121h236c8.3 0 15 6.7 15 15v48c0 8.3-6.7 15-15 15h-236c-8.3 0-15-6.7-15-15v-48c0-8.3 6.7-15 15-15z"/><path fill-rule="evenodd" class="b" d="m32 132v56c-4.4 0-8-3.6-8-8v-40c0-4.4 3.6-8 8-8z"/><path fill-rule="evenodd" class="c" d="m32 132h144.1l-24.2 56h-119.9z"/><path fill-rule="evenodd" class="b" d="m176.1 132h86.3c4.2 0 7.6 3.6 7.6 8v40c0 4.4-3.4 8-7.6 8h-110.5z"/><path fill-rule="evenodd" class="e" d="m236 151.3c4.8 0 8.7 3.9 8.7 8.7 0 4.8-3.9 8.7-8.7 8.7-4.8 0-8.7-3.9-8.7-8.7 0-4.8 3.9-8.7 8.7-8.7z"/><path fill-rule="evenodd" class="e" d="m204 151.3c4.8 0 8.7 3.9 8.7 8.7 0 4.8-3.9 8.7-8.7 8.7-4.8 0-8.7-3.9-8.7-8.7 0-4.8 3.9-8.7 8.7-8.7z"/><path fill-rule="evenodd" class="e" d="m63 141.9c10 0 18.1 8.1 18.1 18.1 0 10-8.1 18.1-18.1 18.1-10 0-18.1-8.1-18.1-18.1 0-10 8.1-18.1 18.1-18.1z"/><path fill-rule="evenodd" class="a" d="m29 35h236c8.3 0 15 6.7 15 15v48c0 8.3-6.7 15-15 15h-236c-8.3 0-15-6.7-15-15v-48c0-8.3 6.7-15 15-15z"/><path fill-rule="evenodd" class="b" d="m32 46v56c-4.4 0-8-3.6-8-8v-40c0-4.4 3.6-8 8-8z"/><path fill-rule="evenodd" class="c" d="m32 46h144.1l-24.2 56h-119.9z"/><path fill-rule="evenodd" class="b" d="m176.1 46h86.3c4.2 0 7.6 3.6 7.6 8v40c0 4.4-3.4 8-7.6 8h-110.5z"/><path fill-rule="evenodd" class="f" d="m236 65.3c4.8 0 8.7 3.9 8.7 8.7 0 4.8-3.9 8.7-8.7 8.7-4.8 0-8.7-3.9-8.7-8.7 0-4.8 3.9-8.7 8.7-8.7z"/><path fill-rule="evenodd" class="f" d="m204 65.3c4.8 0 8.7 3.9 8.7 8.7 0 4.8-3.9 8.7-8.7 8.7-4.8 0-8.7-3.9-8.7-8.7 0-4.8 3.9-8.7 8.7-8.7z"/><path fill-rule="evenodd" class="f" d="m63 55.9c10 0 18.1 8.1 18.1 18.1 0 10-8.1 18.1-18.1 18.1-10 0-18.1-8.1-18.1-18.1 0-10 8.1-18.1 18.1-18.1z"/><path fill-rule="evenodd" class="g" d="m279.9 81.1c-3.3 0.8-6.7 1.2-10.3 1.2-23.2 0-41.9-18.7-41.9-41.9 0-1.7 0.1-3.7 0.3-5.4 3.6 0 15 0 15 0l37 31c0 0-0.1 10.1-0.1 15.1z"/><path fill-rule="evenodd" class="h" d="m269.6 7.5c18.2 0 32.9 14.7 32.9 32.9 0 18.1-14.7 32.8-32.9 32.8-18.1 0-32.8-14.7-32.8-32.8 0-18.2 14.7-32.9 32.8-32.9z"/><path class="i" d="m271.6 56.1v-29.6h-5.2v29.6zm11.1-12.1v-5.3h-27.2v5.3z"/><path fill-rule="evenodd" class="a" d="m450.6 210.1q24.4 0 35.7-12.9 11.3-12.9 11.3-41.2 0-54.2-47-54.2h-33v108.3zm-64.5-140.3h68q36.8 0 56.3 22.2 19.5 22.1 19.5 64 0 42.1-19.4 64.1-19.4 22-56.1 22h-68.3zm238.8 98.3q0.2-15.5-6.4-22.6-6.5-7-20.5-7-12.6 0-18.7 7-6.1 7.1-7.2 22.6zm28.2-3.2q0 6.4-0.6 13-0.5 6.7-1.2 11.6h-78.9q2.2 14.5 11.1 20.8 8.9 6.3 25.7 6.3 4.9 0 10.3-0.5 5.4-0.5 10.5-1.3 5.1-0.7 9.7-1.8 4.5-1.1 7.4-2.1v27.3q-6.4 3.2-17.1 4.9-10.6 1.8-21.7 1.8-68 0-68-67.5 0-34.2 14.2-50.7 14.1-16.5 43.4-16.5 27 0 41.1 13.9 14.1 13.9 14.1 40.8zm3.2-52h32.5l30.4 103.2 29.9-103.2h32.6l-39.9 129.3h-45.6z"/><path fill-rule="evenodd" class="b" d="m778.9 69.8h32.1l33.4 132.9 33.3-132.9h32.5l33.3 133.2 33.7-133.2h31.9l-43 172.3h-40.8l-31.2-122.3-31.7 122.3h-40.6zm315.2 98.3q0.2-15.5-6.3-22.6-6.5-7-20.5-7-12.6 0-18.7 7-6.1 7.1-7.2 22.6zm28.1-3.2q0 6.4-0.5 13-0.6 6.7-1.2 11.6h-78.9q2.2 14.5 11.1 20.8 8.8 6.3 25.7 6.3 4.8 0 10.3-0.5 5.4-0.5 10.5-1.3 5.1-0.7 9.6-1.8 4.6-1.1 7.4-2.1v27.3q-6.4 3.2-17 4.9-10.7 1.8-21.7 1.8-68 0-68-67.5 0-34.2 14.1-50.7 14.2-16.5 43.5-16.5 27 0 41.1 13.9 14 13.9 14 40.8zm79.2-25.2q-31.4 0-31.4 37.7 0 19.7 7.6 28.8 7.7 9.1 23.8 9.1 16 0 23.5-9.1 7.6-9.1 7.6-28.8 0-37.7-31.1-37.7zm-61.8-76h30.4v67.9q12.6-21.4 40.3-21.4 25.3 0 39.1 17.7 13.9 17.8 13.9 49.5 0 31.8-13.8 49.6-13.7 17.9-39.2 17.9-28.1 0-40.8-22.2l-0.6 19.5h-29.3zm139.7 6.1h31.7v106.9q0 17.9 9.4 27.4 9.4 9.5 27.2 9.5 17.2 0 26.4-9.2 9.2-9.3 9.2-27.7v-106.9h31.5v111.5q0 14.8-4.7 26.6-4.6 11.8-13.3 20.1-8.6 8.2-21.1 12.5-12.5 4.4-28.3 4.4-15.9 0-28.4-4.4-12.6-4.3-21.4-12.5-8.9-8.3-13.5-20.1-4.7-11.8-4.7-26.6zm159 0h31.5v172.4h-31.5z"/></svg>